<svg xmlns="http://www.w3.org/2000/svg" width="570" height="300" viewBox="0 0 570 300">
  <g fill="none" fill-rule="evenodd" transform="translate(0 1)">
    <path fill="#FFFFFF" stroke="#FFFFFF" stroke-width=".24" d="M23.962,9.264 L0.62,9.264 L0.62,3.599 L126.05,3.599 L127.862,48.484 L122.877,48.484 C122.877,47.804 122.194,45.311 121.969,43.724 C116.289,16.066 106.974,9.264 82.457,9.264 L50.231,9.264 L50.231,73.647 L56.358,73.647 C71.111,73.647 84.727,73.647 86.543,45.763 L92.21,45.763 L92.21,108.459 L86.543,108.459 C84.727,78.798 74.059,78.798 56.358,78.798 L50.231,78.798 L50.231,146.271 L76.33,146.271 L76.33,151.938 L0.62,151.938 L0.62,146.271 L23.962,146.271 L23.962,9.264 L23.962,9.264 Z"/>
    <path stroke="#FFFFFF" d="M23.962,9.264 L0.62,9.264 L0.62,3.599 L126.05,3.599 L127.862,48.484 L122.877,48.484 C122.877,47.804 122.194,45.311 121.969,43.724 C116.289,16.066 106.974,9.264 82.457,9.264 L50.231,9.264 L50.231,73.647 L56.358,73.647 C71.111,73.647 84.727,73.647 86.543,45.763 L92.21,45.763 L92.21,108.459 L86.543,108.459 C84.727,78.798 74.059,78.798 56.358,78.798 L50.231,78.798 L50.231,146.271 L76.33,146.271 L76.33,151.938 L0.62,151.938 L0.62,146.271 L23.962,146.271 L23.962,9.264 L23.962,9.264 Z"/>
    <path fill="#FFFFFF" stroke="#FFFFFF" stroke-width=".24" d="M135.726,79.692 C135.726,112.28 162.497,155.286 204.593,155.286 C241.018,155.286 273.459,119.068 273.459,77.656 C273.459,37.601 241.018,0.25 205.724,0.25 C169.296,0.25 135.726,34.659 135.726,79.692 Z M166.581,79.014 C166.581,39.864 169.748,27.417 174.726,19.723 C181.515,9.087 195.09,5.917 205.044,5.917 C211.154,5.917 229.028,7.049 236.719,23.57 C240.34,31.264 242.603,43.032 242.603,71.094 C242.603,91.913 242.375,119.068 236.041,131.968 C228.122,148.262 210.249,149.619 204.14,149.619 C167.261,149.619 166.581,116.127 166.581,79.014 Z"/>
    <path stroke="#FFFFFF" d="M135.726,79.692 C135.726,112.28 162.497,155.286 204.593,155.286 C241.018,155.286 273.459,119.068 273.459,77.656 C273.459,37.601 241.018,0.25 205.724,0.25 C169.296,0.25 135.726,34.659 135.726,79.692 Z M166.581,79.014 C166.581,39.864 169.748,27.417 174.726,19.723 C181.515,9.087 195.09,5.917 205.044,5.917 C211.154,5.917 229.028,7.049 236.719,23.57 C240.34,31.264 242.603,43.032 242.603,71.094 C242.603,91.913 242.375,119.068 236.041,131.968 C228.122,148.262 210.249,149.619 204.14,149.619 C167.261,149.619 166.581,116.127 166.581,79.014 Z"/>
    <path fill="#FFFFFF" stroke="#FFFFFF" stroke-width=".24" d="M285.981,79.692 C285.981,112.28 312.752,155.286 354.847,155.286 C391.273,155.286 423.714,119.068 423.714,77.656 C423.714,37.601 391.273,0.25 355.978,0.25 C319.552,0.25 285.981,34.659 285.981,79.692 Z M316.837,79.014 C316.837,39.864 320.005,27.417 324.981,19.723 C331.77,9.087 345.345,5.917 355.3,5.917 C361.408,5.917 379.281,7.049 386.976,23.57 C390.594,31.264 392.858,43.032 392.858,71.094 C392.858,91.913 392.631,119.068 386.296,131.968 C378.377,148.262 360.503,149.619 354.394,149.619 C317.516,149.619 316.837,116.127 316.837,79.014 Z"/>
    <path stroke="#FFFFFF" d="M285.981,79.692 C285.981,112.28 312.752,155.286 354.847,155.286 C391.273,155.286 423.714,119.068 423.714,77.656 C423.714,37.601 391.273,0.25 355.978,0.25 C319.552,0.25 285.981,34.659 285.981,79.692 Z M316.837,79.014 C316.837,39.864 320.005,27.417 324.981,19.723 C331.77,9.087 345.345,5.917 355.3,5.917 C361.408,5.917 379.281,7.049 386.976,23.57 C390.594,31.264 392.858,43.032 392.858,71.094 C392.858,91.913 392.631,119.068 386.296,131.968 C378.377,148.262 360.503,149.619 354.394,149.619 C317.516,149.619 316.837,116.127 316.837,79.014 Z"/>
    <path fill="#FFFFFF" stroke="#FFFFFF" stroke-width=".24" d="M443.372,146.271 L420.255,146.271 L420.255,151.938 L489.837,151.938 C505.269,151.938 513.211,150.578 520.02,148.538 C546.565,140.837 568.774,112.983 568.774,77.656 C568.774,52.973 558.123,28.968 539.31,15.607 C522.743,3.825 503.227,3.599 490.291,3.599 L420.255,3.599 L420.255,9.264 L443.372,9.264 L443.372,146.271 L443.372,146.271 Z M469.64,9.264 L489.384,9.264 C500.731,9.264 513.438,9.264 523.197,16.74 C533.184,24.439 540.22,39.838 540.22,70.637 C540.22,110.265 536.359,132.684 516.844,142.196 C508.446,146.271 495.737,146.271 488.93,146.271 L469.64,146.271 L469.64,9.264 L469.64,9.264 Z"/>
    <path fill="#FFFFFF" d="M443.372,146.271 L420.255,146.271 L420.255,151.938 L489.837,151.938 C505.269,151.938 513.211,150.578 520.02,148.538 C546.565,140.837 568.774,112.983 568.774,77.656 C568.774,52.973 558.123,28.968 539.31,15.607 C522.743,3.825 503.227,3.599 490.291,3.599 L420.255,3.599 L420.255,9.264 L443.372,9.264 L443.372,146.271 L443.372,146.271 Z M469.64,9.264 L489.384,9.264 C500.731,9.264 513.438,9.264 523.197,16.74 C533.184,24.439 540.22,39.838 540.22,70.637 C540.22,110.265 536.359,132.684 516.844,142.196 C508.446,146.271 495.737,146.271 488.93,146.271 L469.64,146.271 L469.64,9.264 L469.64,9.264 Z"/>
    <polygon fill="#FFFFFF" stroke="#FFFFFF" stroke-width=".24" points="23.962 200.11 10.838 200.685 10.838 179.923 59.592 179.923 59.592 200.685 46.754 200.11 46.754 243.784 23.962 243.784"/>
    <polygon stroke="#FFFFFF" points="23.962 200.11 10.838 200.685 10.838 179.923 59.592 179.923 59.592 200.685 46.754 200.11 46.754 243.784 23.962 243.784"/>
    <path fill="#FFFFFF" stroke="#FFFFFF" stroke-width=".24" d="M112.875,243.784 L135.514,243.784 L135.514,223.292 C135.514,223.292 136.125,223.483 136.758,225.111 L145.957,243.784 L172.686,243.784 L158.314,222.238 C157.05,220.008 154.963,218.695 154.963,218.695 C159.656,217.259 162.051,215.919 163.681,213.811 C166.075,210.843 167.321,206.629 167.321,201.938 C167.321,193.894 163.967,187.771 157.165,183.561 C152.76,180.977 148.639,179.923 141.741,179.923 L112.875,179.923 L112.875,243.784 Z M135.514,208.354 L135.514,197.436 L139.537,197.436 C142.603,197.436 144.807,199.735 144.807,202.992 C144.807,206.248 142.507,208.257 138.675,208.354 L135.514,208.354 Z"/>
    <path stroke="#FFFFFF" d="M112.875,243.784 L135.514,243.784 L135.514,223.292 C135.514,223.292 136.125,223.483 136.758,225.111 L145.957,243.784 L172.686,243.784 L158.314,222.238 C157.05,220.008 154.963,218.695 154.963,218.695 C159.656,217.259 162.051,215.919 163.681,213.811 C166.075,210.843 167.321,206.629 167.321,201.938 C167.321,193.894 163.967,187.771 157.165,183.561 C152.76,180.977 148.639,179.923 141.741,179.923 L112.875,179.923 L112.875,243.784 Z M135.514,208.354 L135.514,197.436 L139.537,197.436 C142.603,197.436 144.807,199.735 144.807,202.992 C144.807,206.248 142.507,208.257 138.675,208.354 L135.514,208.354 Z"/>
    <path fill="#FFFFFF" stroke="#FFFFFF" stroke-width=".24" d="M236.032,235.796 L253.661,235.796 L255.768,243.784 L280.39,243.784 L257.589,179.928 L231.914,179.928 L209.783,243.784 L234.309,243.784 L236.032,235.796 L236.032,235.796 Z M240.343,220.626 L243.506,208.437 C243.689,207.646 245.041,201.293 245.041,201.293 C245.684,204.361 246.328,206.873 246.668,208.437 L249.637,220.626 L240.343,220.626 L240.343,220.626 Z"/>
    <path stroke="#FFFFFF" d="M236.032,235.796 L253.661,235.796 L255.768,243.784 L280.39,243.784 L257.589,179.928 L231.914,179.928 L209.783,243.784 L234.309,243.784 L236.032,235.796 L236.032,235.796 Z M240.343,220.626 L243.506,208.437 C243.689,207.646 245.041,201.293 245.041,201.293 C245.684,204.361 246.328,206.873 246.668,208.437 L249.637,220.626 L240.343,220.626 L240.343,220.626 Z"/>
    <path fill="#FFFFFF" d="M333.456,179.931 L342.366,210.022 C342.968,212.689 343.398,214.234 343.998,218.613 C343.998,218.613 344.943,212.518 345.719,210.022 L354.437,179.931 L378.675,179.931 L353.96,243.791 L334.031,243.791 L309.218,179.931 L333.456,179.931 L333.456,179.931 Z"/>
    <path stroke="#FFFFFF" d="M333.456,179.931 L342.366,210.022 C342.968,212.689 343.398,214.234 343.998,218.613 C343.998,218.613 344.943,212.518 345.719,210.022 L354.437,179.931 L378.675,179.931 L353.96,243.791 L334.031,243.791 L309.218,179.931 L333.456,179.931 L333.456,179.931 Z"/>
    <polygon fill="#FFFFFF" stroke="#FFFFFF" stroke-width=".24" points="420.454 179.923 463.568 179.923 463.568 197.436 443.736 197.436 443.736 203.358 461.748 203.358 461.748 220.098 443.736 220.098 443.736 226.28 464.239 226.28 464.239 243.791 420.454 243.791 420.454 179.923"/>
    <polygon stroke="#FFFFFF" points="420.454 179.923 463.568 179.923 463.568 197.436 443.736 197.436 443.736 203.358 461.748 203.358 461.748 220.098 443.736 220.098 443.736 226.28 464.239 226.28 464.239 243.791 420.454 243.791 420.454 179.923"/>
    <polygon fill="#FFFFFF" stroke="#FFFFFF" stroke-width=".24" points="522.309 179.931 545.593 179.931 545.593 223.192 565.136 223.192 565.136 243.789 522.309 243.789"/>
    <polygon stroke="#FFFFFF" points="522.309 179.931 545.593 179.931 545.593 223.192 565.136 223.192 565.136 243.789 522.309 243.789"/>
    <path fill="#FFFFFF" fill-rule="nonzero" d="M255.241,166.609 C253.017,168.791 252.028,170.029 251.286,170.029 C250.891,170.029 250.594,169.731 250.594,169.385 C250.594,167.848 255.144,150.945 255.292,150.352 L254.944,150.203 L251.915,150.549 L251.766,150.698 L251.273,152.876 L251.174,152.876 C251.025,151.488 249.4,150.203 247.28,150.203 C240.725,150.203 233.152,159.464 233.152,166.745 C233.152,168.183 233.3,172.599 238.262,172.599 C241.22,172.599 243.833,171.108 247.927,165.062 L248.025,165.162 C247.235,168.195 246.988,169.286 246.988,170.423 C246.988,171.26 246.988,172.54 249.062,172.54 C251.187,172.54 252.869,170.768 255.835,167.104 L255.241,166.609 L255.241,166.609 Z M237.324,166.647 C237.324,162.188 241.761,151.29 247.527,151.29 C248.957,151.29 250.336,152.232 250.336,154.609 C250.336,159.464 245.505,170.165 240.282,170.165 C238.951,170.165 237.324,169.272 237.324,166.647 Z"/>
    <path fill="#FFFFFF" stroke="#FFFFFF" d="M255.241,166.609 C253.017,168.791 252.028,170.029 251.286,170.029 C250.891,170.029 250.594,169.731 250.594,169.385 C250.594,167.848 255.144,150.945 255.292,150.352 L254.944,150.203 L251.915,150.549 L251.766,150.698 L251.273,152.876 L251.174,152.876 C251.025,151.488 249.4,150.203 247.28,150.203 C240.725,150.203 233.152,159.464 233.152,166.745 C233.152,168.183 233.3,172.599 238.262,172.599 C241.22,172.599 243.833,171.108 247.927,165.062 L248.025,165.162 C247.235,168.195 246.988,169.286 246.988,170.423 C246.988,171.26 246.988,172.54 249.062,172.54 C251.187,172.54 252.869,170.768 255.835,167.104 L255.241,166.609 L255.241,166.609 Z M237.324,166.647 C237.324,162.188 241.761,151.29 247.527,151.29 C248.957,151.29 250.336,152.232 250.336,154.609 C250.336,159.464 245.505,170.165 240.282,170.165 C238.951,170.165 237.324,169.272 237.324,166.647 Z"/>
    <path fill="#FFFFFF" fill-rule="nonzero" d="M279.82,166.887 C277.347,170.208 275.617,172.476 272.942,172.476 C270.659,172.476 270.56,170.997 270.56,169.563 C270.56,168.375 274.232,156.28 274.224,154.295 C274.224,153.403 273.927,152.71 272.988,152.71 C270.613,152.71 267.499,156.97 265.715,159.747 C263.439,163.162 262.797,165.291 260.768,172.026 L257.061,172.026 C258.594,166.43 261.906,154.845 261.906,153.805 C261.906,153.062 261.412,152.517 258.742,152.517 L258.742,151.744 C261.412,151.25 264.082,150.755 266.758,150.2 L266.907,150.297 L263.741,160.634 L263.841,160.734 C266.164,157.069 270.713,150.2 274.814,150.2 C277.082,150.2 278.215,151.381 278.215,153.453 C278.215,155.583 274.273,167.816 274.282,169.315 C274.282,170.058 274.974,170.159 275.074,170.159 C276.061,170.159 277.299,168.572 279.128,166.242 L279.82,166.887 L279.82,166.887 Z"/>
    <path fill="#FFFFFF" stroke="#FFFFFF" d="M279.82,166.887 C277.347,170.208 275.617,172.476 272.942,172.476 C270.659,172.476 270.56,170.997 270.56,169.563 C270.56,168.375 274.232,156.28 274.224,154.295 C274.224,153.403 273.927,152.71 272.988,152.71 C270.613,152.71 267.499,156.97 265.715,159.747 C263.439,163.162 262.797,165.291 260.768,172.026 L257.061,172.026 C258.594,166.43 261.906,154.845 261.906,153.805 C261.906,153.062 261.412,152.517 258.742,152.517 L258.742,151.744 C261.412,151.25 264.082,150.755 266.758,150.2 L266.907,150.297 L263.741,160.634 L263.841,160.734 C266.164,157.069 270.713,150.2 274.814,150.2 C277.082,150.2 278.215,151.381 278.215,153.453 C278.215,155.583 274.273,167.816 274.282,169.315 C274.282,170.058 274.974,170.159 275.074,170.159 C276.061,170.159 277.299,168.572 279.128,166.242 L279.82,166.887 L279.82,166.887 Z"/>
    <path fill="#FFFFFF" fill-rule="nonzero" d="M303.377,166.527 C301.301,168.899 300.312,170.035 299.324,170.035 C298.827,170.035 298.434,169.69 298.434,168.948 C298.434,168.158 304.416,147.089 306.542,138.482 L306.296,138.234 C303.757,138.725 301.236,139.071 298.711,139.318 L298.711,140.156 C301.434,140.206 301.78,140.455 301.78,141.599 C301.78,142.295 301.434,143.539 301.039,144.931 L298.912,152.839 L298.813,152.938 C298.61,151.848 298.256,150.206 295.479,150.206 C289.593,150.206 281.184,159.278 281.184,166.759 C281.184,169.335 282.223,172.6 286.327,172.6 C288.822,172.6 291.612,171.759 295.189,166.313 L295.289,166.413 C294.893,168.108 294.699,169.245 294.699,170.383 C294.699,171.424 295.093,172.664 297.009,172.664 C298.631,172.664 301.845,170.333 303.971,167.02 L303.377,166.527 L303.377,166.527 Z M288.505,170.227 C285.486,170.227 285.486,167.403 285.486,166.562 C285.486,162.054 290.186,151.352 295.726,151.352 C298.053,151.352 298.053,153.533 298.053,154.672 C298.053,160.814 293.205,170.227 288.505,170.227 Z"/>
    <path fill="#FFFFFF" stroke="#FFFFFF" d="M303.377,166.527 C301.301,168.899 300.312,170.035 299.324,170.035 C298.827,170.035 298.434,169.69 298.434,168.948 C298.434,168.158 304.416,147.089 306.542,138.482 L306.296,138.234 C303.757,138.725 301.236,139.071 298.711,139.318 L298.711,140.156 C301.434,140.206 301.78,140.455 301.78,141.599 C301.78,142.295 301.434,143.539 301.039,144.931 L298.912,152.839 L298.813,152.938 C298.61,151.848 298.256,150.206 295.479,150.206 C289.593,150.206 281.184,159.278 281.184,166.759 C281.184,169.335 282.223,172.6 286.327,172.6 C288.822,172.6 291.612,171.759 295.189,166.313 L295.289,166.413 C294.893,168.108 294.699,169.245 294.699,170.383 C294.699,171.424 295.093,172.664 297.009,172.664 C298.631,172.664 301.845,170.333 303.971,167.02 L303.377,166.527 L303.377,166.527 Z M288.505,170.227 C285.486,170.227 285.486,167.403 285.486,166.562 C285.486,162.054 290.186,151.352 295.726,151.352 C298.053,151.352 298.053,153.533 298.053,154.672 C298.053,160.814 293.205,170.227 288.505,170.227 Z"/>
    <path stroke="#FFFFFF" stroke-width=".5" d="M.661 165.844L229.047 165.844M307.558 165.844L569.3 165.844"/>
    <polygon fill="#FFFFFF" fill-rule="nonzero" points="25.272 272.756 23.361 272.756 23.361 297.345 25.272 297.345 25.272 275.532 34.683 287.034 44.021 275.532 44.021 297.345 45.932 297.345 45.932 272.756 43.985 272.756 34.646 284.185"/>
    <path fill="#FFFFFF" fill-rule="nonzero" d="M113.095 272.575L101.773 297.346 103.756 297.346 107.65 288.836 119.693 288.836 123.587 297.346 125.57 297.346 114.212 272.575 113.095 272.575 113.095 272.575zM108.371 287.25L113.672 275.676 118.936 287.25 108.371 287.25zM191.775 272.431C187.989 272.431 184.852 273.621 182.328 276.001 179.84 278.416 178.578 281.409 178.578 284.979 178.578 288.62 179.84 291.613 182.4 294.028 184.96 296.444 188.133 297.67 191.955 297.67 194.875 297.67 197.796 296.985 200.68 295.579L200.68 286.168 193.577 286.168 193.577 287.755 198.769 287.755 198.769 294.389C196.822 295.399 194.551 295.903 192.027 295.903 188.53 295.903 185.753 294.858 183.698 292.803 181.643 290.747 180.633 288.151 180.633 285.051 180.633 281.95 181.679 279.354 183.734 277.299 185.789 275.244 188.385 274.198 191.486 274.198 194.407 274.198 197.291 275.027 200.212 276.686L200.212 274.522C197.183 273.116 194.371 272.431 191.775 272.431L191.775 272.431zM267.067 272.575L255.746 297.346 257.729 297.346 261.623 288.836 273.665 288.836 277.559 297.346 279.542 297.346 268.185 272.575 267.067 272.575 267.067 272.575zM262.344 287.25L267.644 275.676 272.908 287.25 262.344 287.25z"/>
    <polygon fill="#FFFFFF" fill-rule="nonzero" points="333.697 272.756 333.697 274.342 351.328 274.342 332.868 296.805 333.048 297.346 354.573 297.346 354.573 295.759 336.005 295.759 354.429 273.441 354.249 272.756 333.697 272.756"/>
    <rect width="1.911" height="24.59" x="411.136" y="272.756" fill="#FFFFFF" fill-rule="nonzero"/>
    <polygon fill="#FFFFFF" fill-rule="nonzero" points="491.792 272.756 491.792 294.245 473.152 272.756 471.529 272.756 471.529 297.346 473.44 297.346 473.44 275.857 492.081 297.346 493.703 297.346 493.703 272.756"/>
    <polygon fill="#FFFFFF" fill-rule="nonzero" points="552.293 272.756 552.293 297.346 565.994 297.346 565.994 295.759 554.204 295.759 554.204 285.772 565.418 285.772 565.418 284.185 554.204 284.185 554.204 274.342 565.706 274.342 565.706 272.756 552.293 272.756"/>
    <path fill="#FFFFFF" stroke="#FFFFFF" d="M25.272,272.756 L23.361,272.756 L23.361,297.345 L25.272,297.345 L25.272,275.532 L34.683,287.034 L44.021,275.532 L44.021,297.345 L45.932,297.345 L45.932,272.756 L43.985,272.756 L34.646,284.185 L25.272,272.756 Z M113.094,272.575 L101.773,297.345 L103.756,297.345 L107.65,288.836 L119.692,288.836 L123.586,297.345 L125.569,297.345 L114.212,272.575 L113.094,272.575 L113.094,272.575 Z M108.371,287.25 L113.671,275.676 L118.935,287.25 L108.371,287.25 L108.371,287.25 Z M191.775,272.431 C187.989,272.431 184.852,273.621 182.328,276.001 C179.84,278.416 178.578,281.409 178.578,284.978 C178.578,288.62 179.84,291.613 182.4,294.028 C184.96,296.444 188.133,297.67 191.955,297.67 C194.875,297.67 197.796,296.985 200.68,295.579 L200.68,286.168 L193.577,286.168 L193.577,287.755 L198.769,287.755 L198.769,294.389 C196.822,295.399 194.551,295.903 192.027,295.903 C188.53,295.903 185.753,294.858 183.698,292.803 C181.643,290.747 180.633,288.151 180.633,285.051 C180.633,281.95 181.679,279.354 183.734,277.299 C185.789,275.243 188.385,274.198 191.486,274.198 C194.407,274.198 197.291,275.027 200.212,276.686 L200.212,274.522 C197.183,273.116 194.371,272.431 191.775,272.431 L191.775,272.431 Z M267.067,272.575 L255.746,297.345 L257.729,297.345 L261.623,288.836 L273.665,288.836 L277.559,297.345 L279.542,297.345 L268.185,272.575 L267.067,272.575 L267.067,272.575 Z M262.344,287.25 L267.644,275.676 L272.908,287.25 L262.344,287.25 Z M333.697,272.756 L333.697,274.342 L351.328,274.342 L332.868,296.805 L333.048,297.345 L354.573,297.345 L354.573,295.759 L336.005,295.759 L354.429,273.441 L354.249,272.756 L333.697,272.756 L333.697,272.756 Z M411.136,272.756 L411.136,297.345 L413.047,297.345 L413.047,272.756 L411.136,272.756 Z M491.792,272.756 L491.792,294.245 L473.151,272.756 L471.529,272.756 L471.529,297.345 L473.44,297.345 L473.44,275.856 L492.08,297.345 L493.703,297.345 L493.703,272.756 L491.792,272.756 L491.792,272.756 Z M552.293,272.756 L552.293,297.345 L565.994,297.345 L565.994,295.759 L554.204,295.759 L554.204,285.772 L565.417,285.772 L565.417,284.185 L554.204,284.185 L554.204,274.342 L565.706,274.342 L565.706,272.756 L552.293,272.756 L552.293,272.756 Z"/>
  </g>
</svg>
