<svg xmlns="http://www.w3.org/2000/svg" width="18" height="18" viewBox="0 0 18 18">
  <path fill="#FFFFFF" fill-rule="evenodd" d="M1344.89731,76.8960882 C1341.71791,80.0752053 1336.56394,80.0752053 1333.38455,76.8960882 C1330.20515,73.7169711 1330.20515,68.5634549 1333.38455,65.3843378 C1336.56394,62.2052207 1341.71791,62.2052207 1344.89731,65.3843378 C1348.07671,68.5634549 1348.07671,73.7169711 1344.89731,76.8960882 L1344.89731,76.8960882 Z M1343.61832,75.6172058 C1346.09128,73.1444587 1346.09128,69.1359674 1343.61832,66.6641247 C1341.14535,64.1913775 1337.13651,64.1913775 1334.66445,66.6641247 C1332.19148,69.1368718 1332.19148,73.1453631 1334.66445,75.6172058 C1337.13741,78.089953 1341.14626,78.089953 1343.61832,75.6172058 L1343.61832,75.6172058 Z M1345.53681,78.8153162 L1346.8158,77.5364339 L1348.72887,79.4493308 C1349.08525,79.8056813 1349.09068,80.3790982 1348.7352,80.7345443 C1348.38153,81.0881815 1347.81168,81.0908948 1347.44987,80.7282132 L1345.53681,78.8153162 L1345.53681,78.8153162 Z" transform="translate(-1331 -63)"/>
</svg>
